<?xml version="1.0" standalone="no"?>
<!DOCTYPE svg PUBLIC "-//W3C//DTD SVG 20010904//EN"
 "http://www.w3.org/TR/2001/REC-SVG-20010904/DTD/svg10.dtd">
<svg version="1.0" xmlns="http://www.w3.org/2000/svg"
 width="497.000000pt" height="497.000000pt" viewBox="0 0 497.000000 497.000000"
 preserveAspectRatio="xMidYMid meet">
<metadata>
Created by potrace 1.14, written by Peter Selinger 2001-2017
</metadata>
<g transform="translate(0.000000,497.000000) scale(0.100000,-0.100000)"
fill="#000000" stroke="none">
<path d="M2405 4954 c-16 -2 -60 -9 -98 -15 -66 -11 -68 -12 -130 -80 -34 -39
-87 -110 -117 -158 -30 -48 -77 -121 -104 -162 -28 -42 -60 -107 -73 -149 -14
-41 -31 -82 -39 -91 -8 -8 -14 -21 -14 -28 0 -7 -9 -33 -21 -59 -53 -120 -88
-178 -141 -232 -32 -32 -58 -61 -58 -65 0 -3 -17 -30 -39 -58 -48 -65 -78
-130 -92 -199 -6 -29 -18 -67 -25 -85 -8 -17 -14 -38 -14 -46 0 -8 -17 -52
-39 -98 -21 -46 -41 -100 -45 -119 -3 -19 -12 -48 -20 -65 -17 -35 -81 -242
-105 -335 -9 -36 -19 -69 -22 -75 -14 -22 -29 -169 -34 -345 -4 -141 -10 -203
-25 -260 -16 -60 -23 -133 -32 -356 -11 -271 -11 -284 10 -385 11 -57 31 -165
43 -239 12 -74 27 -148 34 -165 7 -16 21 -61 31 -100 25 -100 76 -217 116
-267 19 -24 46 -65 60 -93 56 -112 282 -405 310 -405 6 0 29 -15 52 -33 57
-47 79 -57 123 -57 21 0 81 -12 133 -25 79 -21 116 -25 215 -24 89 1 131 -3
164 -15 24 -9 51 -16 61 -16 10 0 52 -11 94 -25 90 -29 152 -31 314 -10 84 11
122 21 150 39 20 13 71 38 112 56 41 17 91 39 110 50 19 10 55 28 80 40 25 11
77 52 115 89 39 38 86 77 105 86 19 10 76 59 126 109 80 81 93 98 112 156 12
36 24 83 27 105 4 22 10 49 15 60 64 158 106 482 95 735 -3 85 -10 261 -15
390 -5 129 -16 278 -25 330 -8 52 -22 149 -31 215 -9 66 -20 129 -25 140 -11
26 -26 120 -34 210 -8 90 -80 385 -111 452 -13 29 -40 107 -59 175 -19 68 -39
132 -44 143 -5 11 -17 45 -26 75 -9 30 -20 64 -25 75 -4 11 -20 56 -36 100
-15 44 -44 112 -65 150 -20 39 -42 88 -49 110 -12 37 -102 193 -139 241 -9 12
-45 59 -80 104 -63 81 -144 173 -189 214 -13 12 -59 62 -102 113 -138 159
-248 201 -465 177z m202 -165 c61 -23 137 -70 150 -93 4 -8 63 -77 130 -153
203 -230 335 -421 373 -538 7 -22 26 -66 42 -98 45 -90 114 -285 168 -475 28
-95 56 -185 64 -200 24 -47 97 -342 112 -452 7 -58 27 -195 44 -305 49 -320
60 -405 60 -490 0 -44 5 -183 11 -310 10 -211 10 -245 -9 -420 -13 -112 -30
-216 -42 -252 -11 -35 -29 -105 -40 -156 -10 -51 -28 -117 -39 -148 -25 -65
-99 -153 -173 -202 -29 -20 -80 -63 -113 -97 -54 -55 -81 -72 -255 -158 -203
-100 -212 -103 -386 -118 -70 -6 -91 -4 -160 19 -178 57 -196 60 -301 58 -80
-1 -121 4 -198 24 -54 14 -110 25 -127 25 -52 0 -147 62 -217 142 -48 54 -207
290 -217 320 -4 13 -22 42 -40 66 -68 90 -135 294 -179 552 -14 80 -32 178
-41 218 -12 53 -15 104 -11 185 2 62 7 180 10 262 4 107 12 171 26 223 17 57
22 114 27 270 7 223 27 331 104 567 23 72 47 150 52 175 6 25 24 74 40 110 36
76 55 136 69 205 20 109 82 223 189 351 52 62 63 80 106 165 23 46 80 191 103
259 11 32 48 94 123 207 14 22 36 58 47 79 11 21 42 67 68 101 52 68 71 77
187 92 114 15 182 12 243 -10z"/>
<path d="M2406 4693 c-62 -9 -173 -104 -239 -203 -20 -30 -54 -80 -76 -110
-43 -58 -101 -166 -101 -187 0 -24 -52 -169 -91 -252 -26 -56 -61 -108 -105
-157 -59 -67 -71 -87 -126 -226 -34 -84 -74 -169 -89 -188 -35 -44 -64 -107
-88 -190 -10 -36 -33 -112 -50 -170 -70 -237 -93 -396 -92 -635 1 -93 -5 -210
-14 -280 -41 -312 -41 -309 -23 -495 23 -232 53 -409 95 -555 41 -144 49 -160
157 -317 47 -68 96 -140 111 -162 37 -53 41 -40 9 30 -33 75 -64 178 -97 324
-30 129 -77 406 -84 490 -9 105 37 598 73 785 16 84 46 428 44 505 0 25 6 88
14 140 13 85 20 106 72 195 31 55 67 117 78 137 25 46 56 51 56 11 0 -44 -27
-164 -80 -353 -41 -147 -52 -206 -70 -372 -11 -108 -29 -239 -40 -290 -18 -90
-22 -171 -34 -655 -2 -68 0 -140 4 -160 l7 -38 7 50 c10 64 13 75 25 75 22 0
33 -49 43 -189 5 -80 16 -174 24 -208 14 -66 41 -139 48 -132 2 2 0 114 -6
249 -19 481 -17 543 37 985 8 66 15 150 15 187 0 77 41 284 63 320 20 32 38
101 91 344 26 117 58 240 72 275 14 34 47 144 74 243 50 192 90 307 135 395
38 75 57 133 47 143 -9 9 -96 -86 -134 -147 -13 -22 -42 -89 -64 -149 -31 -87
-48 -120 -85 -160 -49 -54 -94 -133 -113 -200 -27 -93 -57 -20 -36 87 6 34 18
80 25 102 8 22 21 69 30 105 56 222 118 365 201 460 78 91 153 204 179 269 17
46 26 57 48 59 14 2 36 -3 49 -10 13 -7 39 -13 58 -13 32 0 35 -3 38 -33 4
-35 -30 -142 -58 -182 -21 -32 -74 -166 -95 -245 -9 -33 -34 -96 -55 -140 -47
-99 -114 -298 -130 -384 -6 -35 -30 -123 -52 -195 -45 -146 -97 -384 -133
-611 -13 -82 -27 -166 -30 -185 -3 -19 -10 -152 -15 -295 -6 -143 -15 -368
-21 -500 -14 -324 -14 -328 26 -574 39 -233 45 -260 82 -396 30 -105 50 -148
109 -230 49 -69 121 -142 109 -110 -70 188 -123 350 -156 480 -36 143 -42 180
-51 350 -9 179 -6 463 8 638 7 85 13 90 83 66 24 -9 35 -8 47 2 20 16 14 49
-11 63 -39 20 -130 81 -137 91 -14 18 -9 210 6 246 7 19 16 69 20 111 4 43 16
110 26 150 11 40 31 121 45 179 13 58 35 130 48 160 13 30 32 99 41 154 9 55
32 159 51 230 19 72 47 182 61 245 14 63 48 203 76 310 27 107 59 231 70 275
11 44 40 139 63 210 26 79 40 134 34 140 -5 5 -9 17 -9 26 0 13 12 19 50 24
34 5 51 12 55 25 6 20 -10 68 -32 92 -28 31 -151 60 -217 51z m-629 -2285 c-3
-7 -5 -2 -5 12 0 14 2 19 5 13 2 -7 2 -19 0 -25z m-10 -60 c-3 -8 -6 -5 -6 6
-1 11 2 17 5 13 3 -3 4 -12 1 -19z"/>
<path d="M2732 4494 c-12 -24 -26 -101 -23 -134 3 -32 -37 -363 -49 -410 -10
-38 -44 -278 -65 -463 -8 -65 -16 -121 -19 -125 -8 -14 -54 -303 -66 -412 -16
-160 -17 -166 -39 -295 -39 -225 -63 -555 -51 -685 29 -293 32 -371 23 -594
-7 -171 -6 -257 3 -335 7 -58 20 -191 29 -296 16 -181 42 -318 80 -408 15 -37
52 -74 62 -63 10 9 5 237 -6 321 -5 39 -19 129 -32 200 -18 111 -22 181 -26
470 -3 188 0 438 6 560 7 121 13 337 16 480 3 210 8 295 29 440 14 99 30 227
36 285 6 58 13 113 16 122 3 10 12 104 19 210 17 239 40 447 62 558 23 119 32
225 33 370 2 178 1 184 -14 205 -13 18 -14 18 -24 -1z"/>
<path d="M3080 4133 c0 -3 16 -72 36 -152 19 -80 47 -193 61 -251 14 -58 47
-163 73 -235 53 -145 101 -329 125 -479 9 -54 24 -135 34 -180 11 -44 27 -133
36 -196 10 -63 26 -144 36 -180 49 -171 74 -764 58 -1340 l-4 -175 -50 -142
c-27 -79 -45 -146 -41 -150 12 -12 86 75 107 125 11 24 31 98 45 165 14 67 32
134 39 148 15 27 43 273 46 399 4 127 -10 539 -22 655 -6 61 -24 171 -41 245
-23 100 -28 142 -21 160 5 14 6 38 1 55 -4 17 -13 73 -18 125 -18 167 -30 222
-52 228 -17 4 -19 11 -13 52 6 42 4 50 -15 63 -19 13 -21 22 -16 51 4 20 2 37
-4 41 -6 4 -10 -5 -10 -20 0 -51 -17 -15 -30 62 -6 43 -19 94 -27 113 -8 19
-22 58 -30 85 -8 28 -31 85 -50 128 -27 60 -33 86 -29 112 7 37 -30 136 -57
152 -9 4 -30 49 -48 98 -42 120 -119 274 -119 238z m457 -1330 c-3 -10 -5 -2
-5 17 0 19 2 27 5 18 2 -10 2 -26 0 -35z"/>
<path d="M1617 1265 c-6 -15 37 -250 72 -395 51 -209 112 -350 180 -414 35
-34 40 -23 12 26 -26 43 -112 271 -161 423 -37 118 -64 233 -75 328 -6 47 -18
60 -28 32z"/>
</g>
</svg>
